
<global>
amp_veltrack=0
</global>

<group>
amp_veltrack=0
ampeg_decay=20
ampeg_release=0.35
ampeg_sustain=0
group_label=Group_0-45
lpc_hicc1=42
lpc_locc1=0

<region>
hikey=a#4
hivel=127
lokey=a4
lovel=1
lpc=H5f+QWAyrsJaFqRCXRGUwDQER8LKMAxCjPrqQL7DwMGg5iVBC8gPQWlbjsF4Wk1BxREuQG/8E8HVvtxA5y/dwEqA7T/BB0lB8RaqwR/IS0HRywNBoa+rwfIdiEGRJavA
lpc_rms=-24.08
offset=620
pitch_keycenter=a#4
sample=Oboe_invertedmordent_semitone_PP_A#4.opus
tune=+1
</region>

<region>
hikey=a#5
hivel=127
lokey=a5
lovel=1
lpc=FJdiQpUT18Lg24JC4vXBQbz2S8IoD3NBwfXZQRNvvMEVnvO+N8w9QbogMsE9FzpBpPCFQPnpWsHG90lBKWGEwLyqIMH/OLxBXj8awYxOzsB8ViRBf2xyPcKtmsCyMJG+
lpc_rms=-23.21
offset=410
pitch_keycenter=a#5
sample=Oboe_invertedmordent_semitone_PP_A#5.opus
tune=-13
</region>

<region>
hivel=127
key=c4
lovel=1
lpc=F2o0QlERDsPHSSdD1+mPwkSeUcH7bwNBkRqgQckBD8HTBibB8W0NQQPkIsGU30lB0VaIP3WpB8Fp9DjAxhMYQbmVQMAs1to/9WNJwKX638BGeVxBjoKYwMLxU8BtkAxA
lpc_rms=-25.49
offset=1296
sample=Oboe_invertedmordent_semitone_PP_C4.opus
tune=-3
</region>

<region>
hikey=c5
hivel=127
lokey=b4
lovel=1
lpc=LdLKQdZ4dsKC+zVCti2qQKQAqMH6bJBAEaoYQSZmQ8EbaxxBDU8OQMwBkcFKBnBBA57aP536CcHXzvlALAPRwEgAFT+WLCZBeQgVwZyuAcFrQXNB6hgHwNJDz8AUBDlA
lpc_rms=-27.36
offset=655
pitch_keycenter=c5
sample=Oboe_invertedmordent_semitone_PP_C5.opus
tune=+3
</region>

<region>
hikey=c6
hivel=127
lokey=b5
lovel=1
lpc=WJ4QQtY0ecL3Wx1CvSdNQJFGisHISftAydEwQbHC7cCOGV7AWw95QaA3HcHsQfk/5KIHQTY4lcAtPbFAO1vjwGwKUEF8G0HA4lvKwIZnTEGYALK/F/iGwMvME8FHVVBB
lpc_rms=-25.28
offset=730
pitch_keycenter=c6
sample=Oboe_invertedmordent_semitone_PP_C6.opus
tune=-16
</region>

<region>
hikey=d4
hivel=127
lokey=c#4
lovel=1
lpc=iNsGQuN6vsLB0M9CD2JtwgRGuUE3Xwi+GrQOwfLPdUCdiArA1PmaQFcyl8BfaQI/iOmUPwJ8O0AdTY/A6YDAQGUII8GZpfxAxO4pv6TWs8CxCyhBpGILwSu+B0AafAs/
lpc_rms=-23.55
offset=499
pitch_keycenter=d4
sample=Oboe_invertedmordent_semitone_PP_D4.opus
tune=-2
</region>

<region>
hikey=d5
hivel=127
lokey=c#5
lovel=1
lpc=WDboQUwCq8J2ksZCM68/wtdlocBiZoZB/r83wHYymMCrxLa+i/0IQSFOQsE+daJAaCfFQJ3HpsAsI9y9hIK5v9boFkDHbTA/PMgMQE6WLMFOGCpBfC89QCQyM8HbILpA
lpc_rms=-26.73
offset=1300
pitch_keycenter=d5
sample=Oboe_invertedmordent_semitone_PP_D5.opus
tune=-15
</region>

<region>
hikey=d6
hivel=127
lokey=c#6
lovel=1
lpc=JqA1QnhSwsIrdapCeOCVwZAGnsGyVrBBQ6wPwCpldsCQu4ZAgFO/PyWXgUCdOJvA91EVQaF0d79fHLDAHTVWQcCYBcExNANBjk/pvyRgWcDI6YbBDItBQkDTH8LXBU5B
lpc_rms=-23.70
offset=1121
pitch_keycenter=d6
sample=Oboe_invertedmordent_semitone_PP_D6.opus
tune=-26
</region>

<region>
hikey=e4
hivel=127
lokey=d#4
lovel=1
lpc=/p5PQgOMHMPSyy5DPBqSwmE8PsHhC+RBb3aSweQN60CnApY+BI3FwLyIBkHbiIvBj4nLQY40ysCRJwrBqqXTwFiBj0Gm+ULBE8k/QNQN3D8Z2CTAvWwqQSB9e8FF2N9A
lpc_rms=-21.19
offset=1045
pitch_keycenter=e4
sample=Oboe_invertedmordent_semitone_PP_E4.opus
tune=-6
</region>

<region>
hikey=F5
hivel=127
lokey=d#5
lovel=1
lpc=bVaBQrDBKMPEKy9DxTiMwqOedsFxW9dB325pwR0gvkHcqX7B6A47wYDPikELzxbBIcdLQYSSQ8AIGTDBYumfQFTLJkFJrIbA9JrtwPUHYkAhUnq/Cu3GQUSGI8IctrJB
lpc_rms=-20.98
offset=949
pitch_keycenter=e5
sample=Oboe_invertedmordent_semitone_PP_E5.opus
tune=-14
</region>

<region>
hikey=A6
hivel=127
lokey=d#6
lovel=1
lpc=f5+qQnekBcOiPt5Cvzz0wa3nd8FnoCRCapWmwVcWz0GKPAtBpMIFwQzLBULeUHPBSea6QSxCEEGksnvAGyKwQQqnQEC7htNA/nCBwH8D08EivoBCRRcQwh8IbUHrB/NA
lpc_rms=-21.27
offset=234
pitch_keycenter=E6
sample=Oboe_invertedmordent_semitone_PP_E6.opus
tune=+56
</region>

<region>
hikey=f#4
hivel=127
lokey=f4
lovel=1
lpc=8cLsQepLpcIAuaVCJEO7wSeKnMGb4Z1Bt5WSwMwEzjwL1lC9HEwfwf21j0GzBnLBYW8eQStCQMDs9pXArS49QWQPOsGVxd0++Cy0QHJAGcAhF80/LKIxwKluA0Bjsh2/
lpc_rms=-25.80
offset=919
pitch_keycenter=f#4
sample=Oboe_invertedmordent_semitone_PP_F#4.opus
tune=+2
</region>

<region>
hikey=g#4
hivel=127
lokey=g4
lovel=1
lpc=97sDQgQ2vMKlYLtCuFcEwSWBZMLZxihCkBEVQTANB8IPpJ1BAwhEQKQMVsHbajRBZtuWwFUk9T/H25A/ZW60wL1F7UCVyBXBVkojQZ1gV8A5I73AK5rVQIZ9rb+ZdD+/
lpc_rms=-22.77
offset=1293
pitch_keycenter=g#4
sample=Oboe_invertedmordent_semitone_PP_G#4.opus
tune=+3
</region>

<region>
hikey=g#5
hivel=127
lokey=F#5
lovel=1
lpc=qEk8Qo41v8KLgnJCUVXjQVnRX8LomI9BVMW3Qfo5j8EHkZ5Anl4iwIK5IL/2XllBa/U0wVNGYUBYZalAl9G8wDbpNkFheVLBzCOzQL4iI0FAjwHBm9IVQV5KQcFKlg9B
lpc_rms=-25.34
offset=578
pitch_keycenter=g#5
sample=Oboe_invertedmordent_semitone_PP_G#5.opus
tune=-10
</region>
</group>

<group>
amp_veltrack=0
ampeg_decay=20
ampeg_release=0.35
ampeg_sustain=0
group_label=Group_46-90
lpc_hicc1=84
lpc_locc1=43

<region>
hikey=a#4
hivel=127
lokey=a4
lovel=1
lpc=iE3yQWempMK8E5xCf401wfv6/8FRhchBADE8wO4g8MDEK1VAHKI2QdeMucEnFWdBOkgYQcEFkcFkjYNBgLqXwbfYDUFSCGVBV4SbwWkpiEBo2LVAcx4awC2HBL/9lk0+
lpc_rms=-22.57
offset=520
pitch_keycenter=a#4
sample=Oboe_invertedmordent_semitone_MF_A#4.opus
tune=+12
</region>

<region>
hikey=a#5
hivel=127
lokey=a5
lovel=1
lpc=wOtkQoT35cLC8b5CmP6xwDuTS8I/fRpCzoSsQCZ6YcEf4FU+CDVPQZn27MC1bXvAmOSjQd3+p8EcQJpBlx5SwVlVrEBJ4y9BVuqQwfE5oEENsNDA7J3cwEiakEE3K0vB
lpc_rms=-20.79
offset=212
pitch_keycenter=a#5
sample=Oboe_invertedmordent_semitone_MF_A#5.opus
tune=+13
</region>

<region>
hivel=127
key=c4
lovel=1
lpc=jTtsQmrjQMOfo3xDxB0Xw1eInUGpHF9B+wZgQTayZ8FMewfB8IGUQZkmrMHeN4NBfNztvn1sAcDChCnBsFBuQMPNqUGv/q7BWxGKQO1eIr8FaYhAlCVJv6XjS8BWoxhA
lpc_rms=-18.34
offset=1304
sample=Oboe_invertedmordent_semitone_MF_C4.opus
tune=+5
</region>

<region>
hikey=c5
hivel=127
lokey=b4
lovel=1
lpc=W5HPQbath8Jpz3pCWZ8GwSnJ38EwXIxBo4EaQTq0T8HLpDE/Da+OQJfru8D0NqZA/3sYQDH1QcFOs2NBmg2LwKzaEcA/kIk/SlxKwJ6gykBgW0zATRqFwHD7/0B1TIDA
lpc_rms=-24.20
offset=665
pitch_keycenter=c5
sample=Oboe_invertedmordent_semitone_MF_C5.opus
tune=+21
</region>

<region>
hikey=c6
hivel=127
lokey=b5
lovel=1
lpc=/YMCQgrqd8JMGVNC0tpkwTfjgsEdH9JB3KIDwZJH5sDgzllByX1XwIwIg8DZxxxBM1UCwJ5gtsAuE4JBqE91wQkfJEFjzqZAiQNKwcgeU0FKcjRAhVJSwTgi4T+rS9JA
lpc_rms=-25.00
offset=229
pitch_keycenter=c6
sample=Oboe_invertedmordent_semitone_MF_C6.opus
tune=-19
</region>

<region>
hikey=d4
hivel=127
lokey=c#4
lovel=1
lpc=xKfNQYRvl8JC665C81o/wmO+KkFAlJRA2D/HwFrJRMBGdz1BDTQBwSSrIb/6DZ4/mwwiQDGqQMC5SW5AMv9ovrFzCcHhkydBZpG5wH4rkT8bd1RAkiWVwOcGLUBT2ke/
lpc_rms=-23.35
offset=1502
pitch_keycenter=d4
sample=Oboe_invertedmordent_semitone_MF_D4.opus
tune=+12
</region>

<region>
hikey=d5
hivel=127
lokey=c#5
lovel=1
lpc=5JzjQWgqqMJR+s5CSeKGwo3jskHI6vM/UP+nwJxQNUDnAhLA/3aSQNoVN8GSv0ZBig+Lv2qyrsDkxuQ/7abwP4sZGMBOc/U/xU0UQH+w0sDm2Da/ZGyRQZHstMHJ+RdB
lpc_rms=-24.71
offset=1372
pitch_keycenter=d5
sample=Oboe_invertedmordent_semitone_MF_D5.opus
tune=-2
</region>

<region>
hikey=d6
hivel=127
lokey=c#6
lovel=1
lpc=GYcKQqY9dMJNsStCPR8GwbVcD8AiXbFAxPT8P8fdj71P0uu+9+hKQCQRL75HLF1AsXeEQKLGqsCvRsRAtWHVP30YqsCntzFB97WIwPDLGkALHbDB4KoLQnishMEjkCFA
lpc_rms=-24.73
offset=1072
pitch_keycenter=d6
sample=Oboe_invertedmordent_semitone_MF_D6.opus
tune=-22
</region>

<region>
hikey=e4
hivel=127
lokey=d#4
lovel=1
lpc=iKYqQhPzAMNB+BBDUKhpwtjThcEr2bVBnw6WvqiEDMGouShBb7FxwaYjAUHk9Vm/B4DQQG7KY798bDLB7APFQK/SFUDdm4k/jDEJwUfNEEFQCnXA8OsKQKoTLcCtGYk/
lpc_rms=-21.31
offset=2354
pitch_keycenter=e4
sample=Oboe_invertedmordent_semitone_MF_E4.opus
tune=+15
</region>

<region>
hikey=e5
hivel=127
lokey=d#5
lovel=1
lpc=aE/PQugTlsNicbdDBxBew6WIS0Klt11BPDiRwJ6YIUHab4DBix4kwVzP9kGIAcjBqnSBQdX7SEHeROjBnCu6QKg/P0EdjLZAw4B3wQ4WyEAFOozBvmSOQq8utcIbOilC
lpc_rms=-11.37
offset=1013
pitch_keycenter=e5
sample=Oboe_invertedmordent_semitone_MF_E5.opus
tune=+6
</region>

<region>
hikey=A6
hivel=127
lokey=d#6
lovel=1
lpc=K8OtQjT6B8NG5OFCYnn6wdKDZsH+SRlCB8V9wTI8o0GU/WlBL0NPwQd1EkIApIDBtzW0QXIlJkEZ7hvACuSKQQTxK0GEPp+/l3wKQRwEIsJFd4lCCTzwwQDq8EBPuDlB
lpc_rms=-18.32
offset=306
pitch_keycenter=E6
sample=Oboe_invertedmordent_semitone_MF_E6.opus
tune=+68
</region>

<region>
hikey=f#4
hivel=127
lokey=f4
lovel=1
lpc=Q5gCQnqMvsIvFd9CYP90wv1evkBYyWVBeIYTwcZVrEDtvSHATUSwvd7/vr/isFrAhHEcQZZE5MD31u8/d64nQLerAcAcmxDAQU8eQJbUL78v6pVAf4IqwYlwB0GG7QbA
lpc_rms=-22.18
offset=1073
pitch_keycenter=f#4
sample=Oboe_invertedmordent_semitone_MF_F#4.opus
tune=+17
</region>

<region>
hikey=f#5
hivel=127
lokey=f5
lovel=1
lpc=YpA/QoUR8cIojwVDDm+Fwgn+qL9gqaFBAxvdvpDmksAo9ZnAonczQG17DUFI7t3AV+OyQA+AlsB67KlAp2howDXpA0Bi4x/AFAQuQfZKycA2SoDAXgg5QcePWMF4wipB
lpc_rms=-20.92
offset=657
pitch_keycenter=f#5
sample=Oboe_invertedmordent_semitone_MF_F#5.opus
tune=+4
</region>

<region>
hikey=g#4
hivel=127
lokey=g4
lovel=1
lpc=ukzLQZXcjcKUEpNCtUOLwTwx7ME58u1BZRkGwVOQCr+Tt5m+qmDTv+nyhUCrwZLAM99cQFEdZ0AekNzAURESwMaQREHPthDBEG/hv81vA0HCYjLB+g9RQRVVD8ETOxdA
lpc_rms=-21.54
offset=913
pitch_keycenter=g#4
sample=Oboe_invertedmordent_semitone_MF_G#4.opus
tune=+12
</region>

<region>
hikey=g#5
hivel=127
lokey=g5
lovel=1
lpc=mrBZQvLy3sK12ahCBHRvQJxvE8KBjZdBlu66v9Vv3kBZsPtAx02swZS9gEBTkfFBmPK4wcSsGUBvYp5A3SHWvrU+dEEDaLfBzJdpQdEnEz+Y+R1AU4BvQFjgCMEO6wxB
lpc_rms=-20.89
offset=521
pitch_keycenter=g#5
sample=Oboe_invertedmordent_semitone_MF_G#5.opus
tune=+5
</region>
</group>

<group>
amp_veltrack=0
ampeg_decay=20
ampeg_release=0.35
ampeg_sustain=0
group_label=Group_91-127
lpc_hicc1=127
lpc_locc1=85

<region>
hikey=a#4
hivel=127
lokey=a4
lovel=1
lpc=F8QeQuXe3sKHyvRC5/FLwm7dqcEpXiNCloSbwQXjC79SlV5AiLn/QMUTucFb+KRBPY/6vhX9acFsxLVBgZKnwUP1LUHls+2/UnH1wGwZJkGhvF7AXmdKPtOwzD8O8vy/
lpc_rms=-19.47
offset=626
pitch_keycenter=a#4
sample=Oboe_invertedmordent_semitone_FF_A#4.opus
tune=-7
</region>

<region>
hikey=a#5
hivel=127
lokey=a5
lovel=1
lpc=DsRPQsAq4cLJHMpCz/J7wTNiOMJ/MEFClciAweASGUAOWZs/fIwzQFq01MCOjVtBgdCQwLheGMEBUNJBqTDhwYyEmUEPcs8+99ypv9K27cDjQvNAvRVrQaFwosH7+95A
lpc_rms=-17.68
offset=257
pitch_keycenter=a#5
sample=Oboe_invertedmordent_semitone_FF_A#5.opus
tune=-23
</region>

<region>
hivel=127
key=c4
lovel=1
lpc=ja9rQnmNSsP9M5dDqsh9w/w2BUNRpE3Cg3qvQZ/BJcBzgjvBSHiIQV7XBcISljdCUMvuwYpkGkGfDrO/4G4DwSNse0GgtpPAU9R6wWa24kEqUwPCwbTzQWXhlsE8qsRA
lpc_rms=-15.60
offset=1294
sample=Oboe_invertedmordent_semitone_FF_C4.opus
tune=-12
</region>

<region>
hikey=c5
hivel=127
lokey=b4
lovel=1
lpc=6DK0QbNwa8IpmnZC487WwWe4vsAouZJBT0ZhwQe30EDRGLy/vpsJP9Zs8L9/xJhANL9xwLbtzL8Ch4NAUMt1wOrFS0BxCgpAp0nnwBh9pEBXr2hAW2AvwdgjG0GiZ2HA
lpc_rms=-24.41
offset=570
pitch_keycenter=c5
sample=Oboe_invertedmordent_semitone_FF_C5.opus
tune=-8
</region>

<region>
hikey=c6
hivel=127
lokey=b5
lovel=1
lpc=82fUQUxWMMKK9hBC0/FnwfhFCMBZ5yJBhnhyv0ZaLMCtm4hAD6CSQLYgocCNf31Apvt7QOffPb7XUULA/mH6QLPN4j5IkIXATGPeQBm6B0Ds6JfAx8qEQOI8LcFSTDdB
lpc_rms=-22.72
offset=225
pitch_keycenter=c6
sample=Oboe_invertedmordent_semitone_FF_C6.opus
tune=-55
</region>

<region>
hikey=d4
hivel=127
lokey=c#4
lovel=1
lpc=L1LMQcTjmcLOXrZC6505wpEQaj+0nP9Argk+wAShM0CJqVlA9LXvwFLtLcDLbPJA6XQYQOxz3cDHBtK/ojbrQLfmoMDGXN9AdX9EwWYwIEHlRY/ADfRiQP3ObMBxi8w/
lpc_rms=-20.94
offset=984
pitch_keycenter=d4
sample=Oboe_invertedmordent_semitone_FF_D4.opus
tune=-11
</region>

<region>
hikey=d5
hivel=127
lokey=c#5
lovel=1
lpc=zGucQdHHeMJTtqpC1X14wj2Fv0HEiITA594OQKPiOcBDPu+//ZkVQajJQ8F3Fv9AZc9+vts/mr/AXoHANvvlQEKxk8CLcMA+YNeXQDCLGMFACARBBos4vz1PX8Bz4fs/
lpc_rms=-21.19
offset=891
pitch_keycenter=d5
sample=Oboe_invertedmordent_semitone_FF_D5.opus
tune=-17
</region>

<region>
hikey=d6
hivel=127
lokey=c#6
lovel=1
lpc=VRweQgPzicJnbl9C3/xQwX05k8DwNkBB1rEqwCLm8j/gj7JAcdcCP4PSV0CM/whA8ktgQAR9IEAib98/BfQkQCgNgEBxVUc/7/THQMy1HMEdeEnBOTQ2QsnPGMKbDWJB
lpc_rms=-24.77
offset=585
pitch_keycenter=d6
sample=Oboe_invertedmordent_semitone_FF_D6.opus
tune=-48
</region>

<region>
hikey=e4
hivel=127
lokey=d#4
lovel=1
lpc=6lw8Ql6MEsPwwTZD6MzKwuP88D6UgAxC+GLcwS4v8UHIIxXCplD4QSP/mcGKEZxADwPLQCIOg8AxUcDAHRX4QAUb0T8OOcq+ZY9zwT2OiUEJyAc/2auKwTtJkEFHsdjA
lpc_rms=-15.61
offset=737
pitch_keycenter=e4
sample=Oboe_invertedmordent_semitone_FF_E4.opus
tune=-13
</region>

<region>
hikey=e5
hivel=127
lokey=d#5
lovel=1
lpc=/86bQqULVsNpK3xD7gwXw9NeD0KEYT5BzsCdwNijz0CEDEDBLZ1zwKOHj0Hl96zBVowPQll628H/LM9AXkKLwMWr0kCl/ZRAw9ZiwZLMpkF3bALCrJd/QhgbkMIXUQdC
lpc_rms=-12.60
offset=1153
pitch_keycenter=e5
sample=Oboe_invertedmordent_semitone_FF_E5.opus
tune=-25
</region>

<region>
hikey=A6
hivel=127
lokey=d#6
lovel=1
lpc=i6alQl4RBMMXadlCzTzfwcH6kcGaCzdC+UjjwXkNCkLzR0nAv4jAP1/AyEHEnkXBkiq9QVNrrkBiFIzAxSDVQfu5/sDRJY1B+Z/owdfEIEH5DSpCQg4Xwlfxt0FoD1Q/
lpc_rms=-11.64
offset=568
pitch_keycenter=E6
sample=Oboe_invertedmordent_semitone_FF_E6.opus
tune=+33
</region>

<region>
hikey=f#4
hivel=127
lokey=f4
lovel=1
lpc=N6TTQd4go8JFmc5Cd0Z1wgswi0DkE7VBdo21wXaGi0HiYgLB9ig0wJ13JUCEan4/QQGdQI0+G8HQDr9At2g0vzM0tT6gUzU9ahLTwCbnMkEukfTAvFgUQCBNGD9FLTm/
lpc_rms=-22.77
offset=1046
pitch_keycenter=f#4
sample=Oboe_invertedmordent_semitone_FF_F#4.opus
tune=-9
</region>

<region>
hikey=f#5
hivel=127
lokey=f5
lovel=1
lpc=taLwQeIXq8JdU+hC8h+xwlinDEKx1QPAFxaCQM12EcG2keY/yuSVQLlAakCBeU/Br89SQbg2FsAFxIrAxQuyPwivskCANNbAzeO+QCeZjb+hSYjAl7cBQYuC9MBgbaRA
lpc_rms=-17.54
offset=724
pitch_keycenter=f#5
sample=Oboe_invertedmordent_semitone_FF_F#5.opus
tune=-18
</region>

<region>
hikey=g#4
hivel=127
lokey=g4
lovel=1
lpc=xpSYQUnVXMJ3ZYVC7uoSwvJCS7+5fYdBRS0ywQnLpj+mIjtAboEyvkJ43sCjVRJBddqcwDE8RkCTnYG/CciawLkxGUEErSbBilsLQQoc4sCE12VAe5McQAVKmsCZewFA
lpc_rms=-21.49
offset=818
pitch_keycenter=g#4
sample=Oboe_invertedmordent_semitone_FF_G#4.opus
tune=-10
</region>

<region>
hikey=g#5
hivel=127
lokey=g5
lovel=1
lpc=0X1GQiBKwcLYgrNC/pYQwg7I3b93jX9BpvvbvoFf+cCSxzlBdBv5v2tZm8BhvHBBraaCwTcRjEHfywpAxwlOwZfTN0FjIFBAFItTwNrN/r8LbURBvGHBwDtRmEDrSPI/
lpc_rms=-16.80
offset=712
pitch_keycenter=g#5
sample=Oboe_invertedmordent_semitone_FF_G#5.opus
tune=-20
</region>
</group>

<group>
amp_veltrack=0
ampeg_attack=2
ampeg_release=0.35
group_label=PP
lpc_hicc1=42
lpc_locc1=0
volume=-3

<region>
hivel=127
key=A#4
loop_end=254606
loop_mode=loop_continuous
loop_start=56499
loop_xfade=24005
lovel=1
lpc=g4JHQq9rDcMVSh1DSqOJwpsLocExQBVCTYspP4+Rr8GB6PpAnMiBQEgFjb/xo2HAVwQXQS6rQsEEvypBS0v1wGyQ7UA2C9y/MYyUwXglBkJCfrjByjiBPwRGNUHoedXA
lpc_rms=-22.03
sample=Oboe_sustain_PP_A#4.opus
</region>

<region>
hivel=127
key=A#5
loop_end=252424
loop_mode=loop_continuous
loop_start=56015
loop_xfade=23799
lovel=1
lpc=/msjQtYRisI8g3VCFVtnwXWam8HEBe5BqqcAwUX+KcEClKhB1PWlwHElFMEBHZdBuajnwNLZUsDIHpBBmLCUwX/GZEE3z/ZAGLSmwetmxkE6AYjAz8t5wXQi9kGmxozB
lpc_rms=-26.30
sample=Oboe_sustain_PP_A#5.opus
</region>

<region>
hivel=127
key=A4
loop_end=246638
loop_mode=loop_continuous
loop_start=54731
loop_xfade=23253
lovel=1
lpc=Xpt0QhJfM8OjnkVDGNeTwjEJVsLoVrNC2DBXwgC9f0FdD7K/czlawDQGBEGJHo3BUBGIQe+Hmb+SoenAhAcZQLFYHEAODH9Atfh8waWxWEHJORG9QQwKwT9vKkFvJanA
lpc_rms=-18.71
sample=Oboe_sustain_PP_A4.opus
tune=+2
</region>

<region>
hivel=127
key=A5
loop_end=253010
loop_mode=loop_continuous
loop_start=56145
loop_xfade=23854
lovel=1
lpc=kEwRQlXYnsIsco9CjVEgwSNPHsLPqzJC5DRQwaBEMMEtVn9BJknHwN9nhr3WRcxAt5bVwCaYm0CbRi5AJ4fpwFqIRUEqPcDAogqowM5hakGYjPnAndf1v4x1CEGoH3vA
lpc_rms=-26.63
offset=16302
sample=Oboe_sustain_PP_A5.opus
tune=+1
</region>

<region>
hivel=127
key=B4
loop_end=259972
loop_mode=loop_continuous
loop_start=57690
loop_xfade=24511
lovel=1
lpc=ervpQbG+q8Lmtr1Cg4cNwmZE0cEPkTNCZdXYwZfliED/EX1AUiCmwLvZC0HnD5nAneT5wPXZA0FlfCFAiA2owCXRR0A0wWzA9sKVQHGqYcBtNdm/29gEQZTAA8HP6zZA
lpc_rms=-26.25
sample=Oboe_sustain_PP_B4.opus
tune=-1
</region>

<region>
hivel=127
key=B5
loop_end=249964
loop_mode=loop_continuous
loop_start=55469
loop_xfade=23567
lovel=1
lpc=FTBlQtVJuMJ13oFCbol8QDUNJsJ99hxC5lMcwb5tO8DE5CtBvymCwawHv0E3kvzASsQuwVm9xEGCtR7BHK4owbADtkHY1+PAHwESwLrC/kD8nTLBOlvkQXz+6cHCmZhA
lpc_rms=-25.38
sample=Oboe_sustain_PP_B5.opus
tune=+1
</region>

<region>
hivel=127
key=C#4
loop_end=250571
loop_mode=loop_continuous
loop_start=55604
loop_xfade=23624
lovel=1
lpc=C/4dQuWT8cK3OxNDsD6qwo9vV0EZfYtBw+2XwWphl0FGDI3BDa09QSb4WsEUZiRBUSm+QPrecMHrUIJBxpVdwfRWm0DXkvZAoTgpwSnYwr8QRydBudKzwLUXwj7IrLw9
lpc_rms=-24.78
sample=Oboe_sustain_PP_C#4.opus
</region>

<region>
hivel=127
key=C#5
loop_end=248808
loop_mode=loop_continuous
loop_start=55213
loop_xfade=23458
lovel=1
lpc=kCXrQYoHq8Ivvr5CaUQgwpgsX8HXFblBH76dP6nVasFZM/s+4iNCQWCkw8ANmKHAN6mOQKqNBkHwzjXBVFaXv2KFCkFlj9i/mFffwBAvI0ADRiRBjNknwXDp/D4luAhA
lpc_rms=-24.97
sample=Oboe_sustain_PP_C#5.opus
tune=-2
</region>

<region>
hivel=127
key=C#6
loop_end=262257
loop_mode=loop_continuous
loop_start=58197
loop_xfade=24726
lovel=1
lpc=hHeWQvvN1MIVQppCfDCewfFnG77An7ZB8eKGwV/E9EE4LYzBW8KlQTiExz91FiPAVWmMQYJsNUDBq+zA51DoQRt9pcGT8uhBxu9QwTuBbEHJsFtBRS9Pwg50H0KU1/i+
lpc_rms=-22.13
sample=Oboe_sustain_PP_C#6.opus
tune=+1
</region>

<region>
hivel=127
key=C4
loop_end=249404
loop_mode=loop_continuous
loop_start=55345
loop_xfade=23514
lovel=1
lpc=Z7F4QuKDQ8N1H3NDjQESww4OBUIMuqZBFyzjwel9iUHkUP/AQwuvQCpCg8BaWDrBlperQUusYL1/AlvBGV0tv5WsKkGdLtq/05QhwWkRx0Dg60tBOqzLwY0LmUGypqvA
lpc_rms=-22.35
sample=Oboe_sustain_PP_C4.opus
</region>

<region>
hivel=127
key=C5
loop_end=243661
loop_mode=loop_continuous
loop_start=54071
loop_xfade=22973
lovel=1
lpc=wkCrQaPSa8J7FXRCoxaAwSGxrMF9cppBkVi/QEAXkMFpOdZAjhUBQSRi5MA2tzbAihjuQMWkc7/cFe7A/lK3QE0JzUDLXzjBLQPcPwt8E0FxMYzADrUywWfUekEZm8jA
lpc_rms=-29.11
sample=Oboe_sustain_PP_C5.opus
</region>

<region>
hivel=127
key=C6
loop_end=250823
loop_mode=loop_continuous
loop_start=55660
loop_xfade=23648
lovel=1
lpc=HKY2QgkTgcKkYUtC7JF0wanWxz+21i9BtsWywK5JbUHnXjvBsYuEQaRokMD3W5dA7MiRQFELF76cZh9Bkzz9wFSqgUEjlfjAyoAWQT8z/L6SCGdAlfVkQUlFAsI2a5hB
lpc_rms=-26.05
sample=Oboe_sustain_PP_C6.opus
tune=+3
</region>

<region>
hivel=127
key=D#4
loop_end=263801
loop_mode=loop_continuous
loop_start=58540
loop_xfade=24872
lovel=1
lpc=z5g/QgLwCcPiDBJDx1Q5wg0eQMJMGo9Cf7QMwqeQqMAeT0hBhXA7wB1IgkBlvorB/027QY9xf8GKUE1BwGFfwUpMukAhAkNBr2q+wRrOlkFLicjAHYuOv9viDEAu/B6/
lpc_rms=-23.56
sample=Oboe_sustain_PP_D#4.opus
</region>

<region>
hivel=127
key=D#5
loop_end=244112
loop_mode=loop_continuous
loop_start=54171
loop_xfade=23015
lovel=1
lpc=v1GAQsV2LMODC0BDORm8wkDVs8EbnoZCKYMCwhg7xb+U+2RAZ4cXwPtKbUHUP6bB/skcQbpRLkCDBb6/qhYmwFcLF8EkagJCQ8DWwe7yKUCCUClBb1M4wICvacEvHFtB
lpc_rms=-22.14
sample=Oboe_sustain_PP_D#5.opus
</region>

<region>
hivel=127
key=D#6
loop_end=250041
loop_mode=loop_continuous
loop_start=55486
loop_xfade=23574
lovel=1
lpc=AkH4QhsEMsPgd7tCWEQ9QqZilsKBpkFCvN62QBkNvMDDe9FBp07oQHzZ4T/ND4RByeF1Qbng/D5FRpBBUTqjP1NOvkF6levAmAAAQrwpvMIyw7ZChAnaQVGelsKNMFVC
lpc_rms=-16.94
sample=Oboe_sustain_PP_D#6.opus
</region>

<region>
hivel=127
key=D4
loop_end=262007
loop_mode=loop_continuous
loop_start=58142
loop_xfade=24702
lovel=1
lpc=jqMHQrwRxcK3seNCcwaGwujRXEE/E5FBgKKWweKTA0EonPnAY1UuQe0WasFj8CZBwomTQLH2NcFRVABBml5ewBA9jMDpxRFBQ9qHwI6jVcCSTGBAYty9QMV9KcHpW5RA
lpc_rms=-25.12
sample=Oboe_sustain_PP_D4.opus
</region>

<region>
hivel=127
key=D5
loop_end=250587
loop_mode=loop_continuous
loop_start=55608
loop_xfade=23626
lovel=1
lpc=GdQNQpOh4cLh8xhDi0bbwhgmBkIfvWJBL5wlwec1oMGMdPBBDazSwOMipMEGe71BEUgGwQp+hj5V0sfAaLVyQQ10UsGDJz8/qwzvQN9WhcBtDO7A6X+nQdoYp8HH3QJB
lpc_rms=-24.64
sample=Oboe_sustain_PP_D5.opus
tune=-2
</region>

<region>
hivel=127
key=D6
loop_end=259971
loop_mode=loop_continuous
loop_start=57690
loop_xfade=24510
lovel=1
lpc=4DmAQsyMn8ILr/xBLdG9QUHGkcECgb5BUsElwQB4DEGVMilAKe6bP5RJzEB1jd2+GV8bQFLRGUE3mEnANHCZQEQ6gEBYJKE/73y5QOTAn0B5TSbCSs3BQWpJykGNeNzB
lpc_rms=-25.98
sample=Oboe_sustain_PP_D6.opus
</region>

<region>
hivel=127
key=E4
loop_end=253424
loop_mode=loop_continuous
loop_start=56237
loop_xfade=23893
lovel=1
lpc=GkdRQhVwHcP4ZjBDmJmSwp3kxMFdvUZChqCxwfSXZ8BwaA5B6jd9wX2fZEF5cQrB6KNbQQRHwMBVqvvAPc8IQL8xKUH+DtjAmjUmwbwMa0E769A+e4oLwR3IQEBBs00/
lpc_rms=-22.95
sample=Oboe_sustain_PP_E4.opus
tune=-1
</region>

<region>
hivel=127
key=E5
loop_end=254547
loop_mode=loop_continuous
loop_start=56486
loop_xfade=23999
lovel=1
lpc=T2nHQsx9fMOx1odD8WcLw5drCcDot3tCi0gMwsxRUMGCLRRCuHbJwaVAKkExfRvAJRLDwEa0OEEnhgfBPh4MQbNUlL+ywB/Ae6mEQBB9O0CMa2fBwX7cQT+LCsKRobhB
lpc_rms=-19.20
sample=Oboe_sustain_PP_E5.opus
tune=-1
</region>

<region>
hivel=127
key=F#4
loop_end=256285
loop_mode=loop_continuous
loop_start=56872
loop_xfade=24163
lovel=1
lpc=oK/KQfaOmcJFW7dCIMUrwlMyisFDOBtC3Di2welnlUDS9qA/G/SHwDnQ+0CmfGjBr3GWQThuO8HScx9Ao/1nP1av777q9gpA7ngYwY9YPEF4zDjA4wSpwG3Up0B+sdO/
lpc_rms=-26.61
sample=Oboe_sustain_PP_F#4.opus
tune=-1
</region>

<region>
hivel=127
key=F#5
loop_end=255342
loop_mode=loop_continuous
loop_start=56663
loop_xfade=24074
lovel=1
lpc=odADQsm1nsKX3JxCtDqewc5dysE40pNBk4svQRhJXMHplQc/vqG5QBBMi7+Y21E9OxBDQK6FJsF1Bp1B+hdbwc6IUsDiQWZBugUzPVgEl8EnMY5BDptuQJXfgMGD3DNB
lpc_rms=-26.21
sample=Oboe_sustain_PP_F#5.opus
tune=-1
</region>

<region>
hivel=127
key=F4
loop_end=257959
loop_mode=loop_continuous
loop_start=57244
loop_xfade=24321
lovel=1
lpc=eTVhQoM7JsMt7TtDz+KxwpaF/8AcnwlCDVEWwZUWNcF4h2ZBBV0qwYIW2r9LAuVAYo8GwVSFX0ElEwTBgZ/jwIYJhEHhN97A7v1swPTDVr6lTDRAzMdgv2iB6D8+GXy/
lpc_rms=-22.05
sample=Oboe_sustain_PP_F4.opus
tune=-1
</region>

<region>
hivel=127
key=F5
loop_end=252081
loop_mode=loop_continuous
loop_start=55939
loop_xfade=23767
lovel=1
lpc=ZA0MQ/5ql8P9C3pDKZbGwQLK5cKGXIhCPYooQvA0MMKaRPk/M4oyPnaoIELK0zbCqQXBQE52DkKLG8vBYkHPwE71A0IXUrnBWn2fQZaTzcF0tqpBFIRuQVleKsLChw5C
lpc_rms=-19.40
sample=Oboe_sustain_PP_F5.opus
tune=-1
</region>

<region>
hivel=127
key=G#4
loop_end=251843
loop_mode=loop_continuous
loop_start=55886
loop_xfade=23744
lovel=1
lpc=HW0wQlRV+sJaCABDlA3GwbGxb8Jmj0pC6JOlQJrMr8G+wyNA5gm+wFvBuEEumG/BfTYVwDLTqkCSqG9A6OGhwFj3ib+UL5nAZYJbQXFV5MAJubTAteM7QVAxGcH2Al9A
lpc_rms=-22.24
sample=Oboe_sustain_PP_G#4.opus
</region>

<region>
hivel=127
key=G#5
loop_end=252146
loop_mode=loop_continuous
loop_start=55954
loop_xfade=23773
lovel=1
lpc=vzmHQkYh9MK7YbVCUHd1QYV3f8LF1hdCEhbRQRaV58FQYSTAJWjtQeFwfMFhe3BBIHY3wbhUP0HJCxtBZ8WOwaAroEGK8k1AGNrVv3CWE8EwU5FBMPQdQRf6qMEl9qdB
lpc_rms=-24.04
sample=Oboe_sustain_PP_G#5.opus
</region>

<region>
hivel=127
key=G4
loop_end=272560
loop_mode=loop_continuous
loop_start=60484
loop_xfade=25697
lovel=1
lpc=n+OVQd6RUcITVmBCxiOfwU/zcMEh+qpBOt8JwYzV+r8XkZdAB5mfwMFsLEDEBpm/B2GKQGEJgcCkSRq/xImOv3I3w0BzgCrA2UmiwFtpYEB1Z6ZAnojHwJzKHj59fN4/
lpc_rms=-29.61
sample=Oboe_sustain_PP_G4.opus
</region>

<region>
hivel=127
key=G5
loop_end=256746
loop_mode=loop_continuous
loop_start=56974
loop_xfade=24206
lovel=1
lpc=jeQGQo8XhcKYNFxCwa2UwGIQtcFUu5tB8mLEwDqWB0GWs5zAQ4URwOXA+kDoeKDAAl3PQPvRlkD1gyHB9danv2bvgEHC/OS/pxcfwVBNTUAchCxBlaEGwM/4I8GQFkRB
lpc_rms=-29.34
sample=Oboe_sustain_PP_G5.opus
tune=-2
</region>
</group>

<group>
amp_veltrack=0
ampeg_attack=2
ampeg_release=0.35
group_label=MF
lpc_hicc1=84
lpc_locc1=43
volume=-3

<region>
hivel=127
key=A#4
loop_end=270939
loop_mode=loop_continuous
loop_start=60124
loop_xfade=25545
lovel=1
lpc=r8wEQsVXv8JLztxCrqdVwhLUdcGmrCxC3aHKwRINuz6qUNRAlayCQOQOoMEeI5RBTGxLPzz5esFhRLVBQzitwRouMEGrTqpAMvC6wa5g3kEvpF7B8BrxvgzJw0B47mzA
lpc_rms=-20.90
sample=Oboe_sustain_MF_A#4.opus
tune=-2
</region>

<region>
hivel=127
key=A#5
loop_end=259344
loop_mode=loop_continuous
loop_start=57551
loop_xfade=24451
lovel=1
lpc=0Jd2QrsmzMLzj6tCNuawwZtCgcGrCrtBl74hwG7XmcDpJhlB8jOoPxBTr8AQZkhBmelywGBdoDzg2RJB+Ps0wMFyIsAXL4VBuJNjwf6nO0FO/+tAeKrcwTl+QUIYge7B
lpc_rms=-20.41
sample=Oboe_sustain_MF_A#5.opus
tune=+1
</region>

<region>
hivel=127
key=A4
loop_end=257644
loop_mode=loop_continuous
loop_start=57174
loop_xfade=24291
lovel=1
lpc=OFbOQTOMn8JjFdFCnweLwvJaLEFfB9NBZITlwWJLg0GQV9PASMegQFQc2MCKTFk/vcjEQFM/qsBHRS5A+oAOwHiTfED6FxDAQdKOwHqvy0BBYcc9Sa70wCwFB0ERnUHA
lpc_rms=-21.25
sample=Oboe_sustain_MF_A4.opus
</region>

<region>
hivel=127
key=a5
loop_end=283719
loop_mode=loop_continuous
loop_start=62960
loop_xfade=26750
lovel=1
lpc=NC4eQq05dsJZjz9Cpvj/PzIps8HgpddBTE80wYS3yEAZ/qxA8A8OQJ1Qsr1Kx51AD0t8wDWNbUFZRM8/EwuSwaUo90HEDFDBzAyKQNIIyUCV+QRAZjVXwO0OHkH0AihA
lpc_rms=-20.73
offset=10645
sample=Oboe_sustain_MF_A5.opus
tune=+1
</region>

<region>
hivel=127
key=B4
loop_end=264955
loop_mode=loop_continuous
loop_start=58796
loop_xfade=24980
lovel=1
lpc=r5/rQRUhrsIdRtdCiLd2wvr4/MAK/FNCgYVcwrre4kEbB0RAu3+twWvdvEG6az/BjldiPvnJwz8RIj4/aDMLwOmGjUCr16C/QSsBwfV8wUA4QhxBGEeLwYNwPUG6dIDA
lpc_rms=-19.95
sample=Oboe_sustain_MF_B4.opus
tune=-3
</region>

<region>
hivel=127
key=B5
loop_end=260015
loop_mode=loop_continuous
loop_start=57700
loop_xfade=24515
lovel=1
lpc=cU9xQvxaw8L1yJlCZVUZwPvjL8Ixxi5CbQkbwBg7kcHrdptBJPyVwMj+t0Dr8Ei+YRlau7fH1EC2QYY+PQsoPrbKcEBnA7g/So/0QKudssBQa8TAPR4MQn40BcIYiIpA
lpc_rms=-20.86
sample=Oboe_sustain_MF_B5.opus
tune=+1
</region>

<region>
hivel=127
key=C#4
loop_end=272253
loop_mode=loop_continuous
loop_start=60415
loop_xfade=25669
lovel=1
lpc=AvpLQmITG8OHsjlDLN3PwpdBnEHNJThBbwpnwQoTbkH1cAfBE8KYQNl78MAe0zLBpVDYQU0UqcArrXbBVwg5QXZpFcDwSKtAQI4LwRo4CcCXwOJA1ZY2wPR+kUALQ1vA
lpc_rms=-20.53
sample=Oboe_sustain_MF_C#4.opus
</region>

<region>
hivel=127
key=C#5
loop_end=270507
loop_mode=loop_continuous
loop_start=60028
loop_xfade=25504
lovel=1
lpc=QMi+QW/UgsJ7u5dCjYkjwvBQOsBNOJtBcS8AwaST6MBByo5BQpx2wZzYi0CjspQ/l/vCv2Ij9z9ZEMC/C9s2v4osQL7Kku5AGN8AwV/uvD5pcjlAfOavP+5XqcAEnjhA
lpc_rms=-21.33
sample=Oboe_sustain_MF_C#5.opus
tune=-1
</region>

<region>
hivel=127
key=C#6
loop_end=272041
loop_mode=loop_continuous
loop_start=60368
loop_xfade=25649
lovel=1
lpc=zM6SQo/0uMKm92hC2qyswVM1kUGCxpLAHV0dQZ9SREHGqznBeoCqQRaSpz/cR3vAn+yZQUOQZMB0at5Ax4vwQFXtm0CdOYo/AUkmQXrAKUC7i1RBIZQiwsxkj0GdkHVB
lpc_rms=-20.34
sample=Oboe_sustain_MF_C#6.opus
tune=-1
</region>

<region>
hivel=127
key=C4
loop_end=270272
loop_mode=loop_continuous
loop_start=59976
loop_xfade=25482
lovel=1
lpc=l+KSQlQtfcOVu69DJXZYw9DzhUA/cZRCNr66wXPGF8JxPE9CrQhnwURlE8KfYO5BibnDQchq+cHwKXvBkozuQQ83k0A1l4PB3AbqwJwMkEHAZw7BGQgRQDfB2r5SbQA/
lpc_rms=-17.87
sample=Oboe_sustain_MF_C4.opus
tune=-1
</region>

<region>
hivel=127
key=c5
loop_end=261147
loop_mode=loop_continuous
loop_start=57951
loop_xfade=24621
lovel=1
lpc=Bn+wQUe1f8KCKaBCaro8wq3FM8BrC/NBm42uwaJjCkCC9stAbMA6wFQlfr9sTVw9gCyJQCGULMD2Y1jAN3RkQH4Gc0CQnlzAznzLwKi1KEFbF7G+64xOwe41YkFRlajA
lpc_rms=-22.84
sample=Oboe_sustain_MF_C5.opus
tune=-1
</region>

<region>
hivel=127
key=C6
loop_end=251106
loop_mode=loop_continuous
loop_start=55723
loop_xfade=23675
lovel=1
lpc=V5bKQfdYAcKTObFB5apgQCOK38AyhdJAWZnzQDelRsDg8eM/mmsLQZv9KsDU2Y9A9qgqQAYN8T/vdatAeSUFwONctECGG6hAZItUwIh3lkAi8/5A1wb2v/mFCsGZbwRB
lpc_rms=-25.83
sample=Oboe_sustain_MF_C6.opus
tune=-1
</region>

<region>
hivel=127
key=D#4
loop_end=270245
loop_mode=loop_continuous
loop_start=59970
loop_xfade=25479
lovel=1
lpc=kZ9fQu51L8MokVhD6qLYwoyw1MHzL5JCZYwTwrL6pcBeaIJBvORhwZL0jEEXT8fBUDG/QaK8AcE3FvzAkhr/QIAxD0ACbkDAPJJywPwVCEHLbuzAPNuDQHRdQsAdJek/
lpc_rms=-19.57
sample=Oboe_sustain_MF_D#4.opus
</region>

<region>
hivel=127
key=D#5
loop_end=266962
loop_mode=loop_continuous
loop_start=59241
loop_xfade=25170
lovel=1
lpc=M3pbQl3+HMMB+EZDK0sHw5KoDULnvKBB8rRPwTMqVsGxBNNBNubFwXUvs0FbSKPBZBqLQdYCBcFZXApAYpbJvChuJcFe2LNB+7uKwSR4S0GO5pTBo5GUQSraOMGVscRA
lpc_rms=-15.07
sample=Oboe_sustain_MF_D#5.opus
tune=+1
</region>

<region>
hivel=127
key=D#6
loop_end=249640
loop_mode=loop_continuous
loop_start=55398
loop_xfade=23536
lovel=1
lpc=h0v6QifOJcMIxqhC5gUOQusHUcKOlRxCi6atQIYtNUDvX+FB0GMLQCZxTEEFQ5xBuDvqQPFCOkHAr5ZBvJAjQKxk10GhlA/Bqo86Qr6U1MJM9KlCZyZFQitMqMLOrmdC
lpc_rms=-18.16
sample=Oboe_sustain_MF_D#6.opus
tune=+1
</region>

<region>
hivel=127
key=D4
loop_end=273126
loop_mode=loop_continuous
loop_start=60609
loop_xfade=25751
lovel=1
lpc=czT9Qb5bvMLN/thCIn9jwhMd3UA4VDhBSS3gwMkRFsEdcZhB4eD8wOhXOsGXFX1B1fMnwAAUOMF7U2xBG6dpwIrbXsFLJ6tBHCJbwSkfVj4M5elAhEliwJ6J3L9C+Zw/
lpc_rms=-22.61
sample=Oboe_sustain_MF_D4.opus
tune=-1
</region>

<region>
hivel=127
key=D5
loop_end=265874
loop_mode=loop_continuous
loop_start=59000
loop_xfade=25067
lovel=1
lpc=7euZQfFjccLdcapC2AuMwjdnC0IuoO7ACBt0v/mklMCUnW9B+dmgwRWlhUFIfTrBD9wJQVlvPcBV8UbArh/TQEEE/sAyDbJAua29P1wq28AKwZ9ASi7RPxUQkMAPxRNA
lpc_rms=-21.99
sample=Oboe_sustain_MF_D5.opus
tune=+2
</region>

<region>
hivel=127
key=D6
loop_end=271916
loop_mode=loop_continuous
loop_start=60341
loop_xfade=25637
lovel=1
lpc=iNdHQtJ2gsKSFgtCo0ctQJM+zT//PWxAusA0v/b+S0Cc5YFAuNdVwIoi+UDTzhLA0gX1PwHox0ADfIfAS6v5QJ8hrMC+OxhBPiS6wIlpa0EDKz/CTXAOQstNi0D59HjB
lpc_rms=-23.01
sample=Oboe_sustain_MF_D6.opus
tune=-3
</region>

<region>
hivel=127
key=E4
loop_end=250798
loop_mode=loop_continuous
loop_start=55654
loop_xfade=23646
lovel=1
lpc=gpcfQl9P+8LVhR1DFLu0wjlWrkC77OhBULOdwYKLKUH9N13B19MEQbwV9UBTh6rB/dukQZoqwMALaUPAKR6uvwyb5UAYCBzAn3cTwbsOUUE/7+7AqNWAQMRrbcAf8do/
lpc_rms=-23.82
sample=Oboe_sustain_MF_E4.opus
tune=-1
</region>

<region>
hivel=127
key=E5
loop_end=261012
loop_mode=loop_continuous
loop_start=57921
loop_xfade=24609
lovel=1
lpc=IFoDQ2fas8OC+ctD4ntWwyKkwEHNlyRC0zo7wi1FhEIESDvC730OwfsEskENuTfBzJbrQe2IVcH9nWbB7MBmv6WzxUFPPTrBHjhuwCFDKr+1P4TB3V/LQgfUC8MSL4ZC
lpc_rms=-10.10
sample=Oboe_sustain_MF_E5.opus
tune=-2
</region>

<region>
hikey=A6
hivel=127
lokey=E6
loop_end=261841
loop_mode=loop_continuous
loop_start=58105
loop_xfade=24687
lovel=1
lpc=hhiYQuIP28JeV4hCfkqcQS1r68FHEaZBBRzBQD6XAUFQQBZBiUjfQP8IJEEGX8tAovUZQdKODUHD5oNAoACKQY7vkMB5NOJB+3iRwt1mokInXE0/jqdPwsXKN0IVWuHA
lpc_rms=-20.03
pitch_keycenter=E6
sample=Oboe_sustain_MF_E6.opus
tune=+3
</region>

<region>
hivel=127
key=F#4
loop_end=270982
loop_mode=loop_continuous
loop_start=60133
loop_xfade=25549
lovel=1
lpc=xlIAQuL3wsK7nvZCPNKcwrjJg0GKVoFBK/COwV3jMUHWxLHA5n3JP9KthkBtEn/Bdf69QTQAcsFIsZ08gbe/QHhfm8BotqVAUsLXwEi/l0A0qjBAHAgQwVOD5EAC4wnA
lpc_rms=-21.12
sample=Oboe_sustain_MF_F#4.opus
</region>

<region>
hivel=127
key=F#5
loop_end=254875
loop_mode=loop_continuous
loop_start=56559
loop_xfade=24030
lovel=1
lpc=f/wQQupVwcKeHf1C27a3wkfK9kFIPJtAn7ibwAZSdUC/FuTAzCynQDh8jkClvn/AmYEev2qn2j8mi5dAz82cwFl1Rb8ZM7RA1scPwNKcKkB4ZtTA9rMsQfmwBcFbtrZA
lpc_rms=-17.19
sample=Oboe_sustain_MF_F#5.opus
</region>

<region>
hivel=127
key=F4
loop_end=273337
loop_mode=loop_continuous
loop_start=60656
loop_xfade=25771
lovel=1
lpc=JS8LQlJQ0sK9pARDdUWowsTAGkGkpidC9Ac+woURtUHF1I9AEd14wY9JUUGuSHrBT7SkQVBiS8Gs3lM8GfC4QJnjmMDsoX9A3SRqvlRS1cBGXNhARdktv29n5r+2XYQ/
lpc_rms=-21.71
sample=Oboe_sustain_MF_F4.opus
tune=-1
</region>

<region>
hivel=127
key=F5
loop_end=253941
loop_mode=loop_continuous
loop_start=56352
loop_xfade=23942
lovel=1
lpc=2iGMQqZHDsPvtuZCUwK4wT9T7sHxN5pBT2DiQNDQycDUzktBAQgxweVxTUEOp5bBYqoqQbuo4UDuJlbBgrdLQYut4D7GhwBBI/YrwakDpD+xiMhACUsgwBvTLMG1c45B
lpc_rms=-21.59
sample=Oboe_sustain_MF_F5.opus
tune=+1
</region>

<region>
hivel=127
key=G#4
loop_end=262357
loop_mode=loop_continuous
loop_start=58219
loop_xfade=24736
lovel=1
lpc=SEQGQvutzsJWJgdDs9+qwgVOG0EYP+xBcLqKweoUzsBvIPVAFtabQG3dKMG+EOBAbsywQNdxhMEeg4ZBwSUYwRKwzkAAnNPAFwifPxI3j0BnCK6/ruo0wNuZCkDy7BG/
lpc_rms=-17.87
sample=Oboe_sustain_MF_G#4.opus
tune=-4
</region>

<region>
hivel=127
key=G#5
loop_end=269098
loop_mode=loop_continuous
loop_start=59715
loop_xfade=25371
lovel=1
lpc=ZfeHQm1HAMM0OAJDXd9jwkWW778ObvlB0DxywQqm/kA9fxJByYF8wAtVPECs6+tAhqVBwGPxhUG5JX/BtfKTQUzuBEHmT73B93gCQqU4W8E5ZNK+AB8EQppoFsLpxOpB
lpc_rms=-15.87
sample=Oboe_sustain_MF_G#5.opus
tune=+1
</region>

<region>
hivel=127
key=G4
loop_end=269782
loop_mode=loop_continuous
loop_start=59867
loop_xfade=25436
lovel=1
lpc=7mW3QeMGksLzS8ZCcD2HwgbDG0GSPstBvF+oweWhC0B2XfFACC4HwckUtkCCMq2+d+LMwEy6DUHCIBbApJHPwCqUCUERZg/AwN7dwKZuCUG4RLO//EKOwJ5ZXkAHeiu/
lpc_rms=-23.60
sample=Oboe_sustain_MF_G4.opus
tune=-1
</region>

<region>
hivel=127
key=G5
loop_end=272081
loop_mode=loop_continuous
loop_start=60377
loop_xfade=25652
lovel=1
lpc=VfXzQf6Cf8Jswn1CjrzGwRq1NMAwpOVAPkAYwIr2BUERGvLAiYEDQegnqcAs9Q/AAk50QQMnWcGCgARBeH/KwPpSU0GLBtXAikp1P6hOPMDH5HRAOx5SQXMYpcFjPWFB
lpc_rms=-20.17
sample=Oboe_sustain_MF_G5.opus
tune=+1
</region>
</group>

<group>
amp_veltrack=0
ampeg_attack=2
ampeg_release=0.35
group_label=FF
lpc_hiCC1=43
lpc_hicc1=127
lpc_locc1=85
volume=-3

<region>
hivel=127
key=A#4
loop_end=271286
loop_mode=loop_continuous
loop_start=60201
loop_xfade=25577
lovel=1
lpc=fhZeQmXuGsMO7zRDue/HwoB+kcBdsUZCjzzHwVzTn8CcYkpB9J3XwBH6Yb9HDZnAIE57Qa20XsErZgFBDmnwvzCt371pC7VAZQDgwSB5F0LLvJzBuMWgwMC9mkFU2znB
lpc_rms=-14.39
sample=Oboe_sustain_FF_A#4.opus
tune=-1
</region>

<region>
hivel=127
key=A#5
loop_end=273520
loop_mode=loop_continuous
loop_start=60697
loop_xfade=25788
lovel=1
lpc=k0WdQidzAsP6Bs5CZMtHwb6ZTcKuDoFC3r0IwmhTiEEdb84/NUDKP3Ef/MCc18BBqs2UwQL6tsCHRx1Cz1b8wfDktUD4KQtC2gc1wksFK0Ix5JXBgsZnwRMJQ0IiqAfC
lpc_rms=-15.54
sample=Oboe_sustain_FF_A#5.opus
tune=-2
</region>

<region>
hivel=127
key=A4
loop_end=269139
loop_mode=loop_continuous
loop_start=59725
loop_xfade=25375
lovel=1
lpc=dx7pQcl6r8JmfNJCsm9hwoaOkcAgjhRCRjAOwou7i0Fjy/O/QEmXwE5VVUAhYIDATff6QL/Lm8D3iky/UoBbQBN8mcAAA9FAXG/NwCaArr6uoE5BuY2OwepnHUGVudG/
lpc_rms=-20.07
sample=Oboe_sustain_FF_A4.opus
tune=+1
</region>

<region>
hivel=127
key=A5
loop_end=274002
loop_mode=loop_continuous
loop_start=60804
loop_xfade=25833
lovel=1
lpc=mhMeQt/cgcIsuH1CmG+TwXC1YcEIKwtCMNWzwV1omUG0VwjBl+LgQCazE0G1EafAEesOQD1aPUEDCyPAi6XOwHsqwEEp3lrBPyb1QC56lD+TMT1BkfUKwbcA50BHDtRA
lpc_rms=-17.23
sample=Oboe_sustain_FF_A5.opus
tune=-2
</region>

<region>
hivel=127
key=B4
loop_end=265412
loop_mode=loop_continuous
loop_start=58897
loop_xfade=25024
lovel=1
lpc=mbyjQWP/d8JcIqNCtS5jwlpyKEFAjspBfNn9wdHVi0FY3zzA8nhewCH8v0BQo8XAkrz+P2SRXEBrYW/AL6tuP06/KEDNQInAdNDGv1rAEUGB3QbBVfhHQGP+Ub20ba++
lpc_rms=-21.18
sample=Oboe_sustain_FF_B4.opus
tune=-2
</region>

<region>
hivel=127
key=B5
loop_end=256291
loop_mode=loop_continuous
loop_start=56873
loop_xfade=24164
lovel=1
lpc=nstSQnDQq8LH4aBCeQfRwb1AtMGqS1RC1XgUwjFjfUEUd8JAZw+LwIO8fUD3kbNAQsZ7P7WGAEAMlok+DCC2QA7cVUDbA8HAnHaAQZDStr/KqJfBwzcvQiifAsLpZpJA
lpc_rms=-19.30
sample=Oboe_sustain_FF_B5.opus
tune=-2
</region>

<region>
hivel=127
key=C#4
loop_end=266477
loop_mode=loop_continuous
loop_start=59134
loop_xfade=25124
lovel=1
lpc=nBXrQQ3AssLJGepCM36qwpQ/IEJf8JTB8LGNQTO2YsG9AwRBFKC/wFcnSUBktTPAnFCTQN144r80tr8/0dfowHm3R0FHgbnA96bKwMBZ9kAxlfS89CiRwNm8ckC9pVS/
lpc_rms=-18.35
sample=Oboe_sustain_FF_C#4.opus
tune=-1
</region>

<region>
hivel=127
key=C#5
loop_end=265474
loop_mode=loop_continuous
loop_start=58911
loop_xfade=25029
lovel=1
lpc=ACDDQU+MjMKaD65CUSxZwtdGG0GgPzlBvMwrwRdmKkEiEjDBpBTbQBU2RMAw7Y5A3u/owAn/SUBBzftAPpFdwWKDJEEj4da/YiVhwOSoUUDZKwTA0NLvP5iTtr/kw4U+
lpc_rms=-20.75
sample=Oboe_sustain_FF_C#5.opus
</region>

<region>
hivel=127
key=C#6
loop_end=270942
loop_mode=loop_continuous
loop_start=60125
loop_xfade=25545
lovel=1
lpc=e3NWQkCIfML1yDRCPkCawUgQZUFnA59A5fCGP59MOkEnqV/AcfRXQUDjYL5y9spAuDWcQLLC20Af350/ClwUQTx/A0AZntZAO4QnQERLDEElagVB1+fmwbb6RkHF9ilB
lpc_rms=-21.20
sample=Oboe_sustain_FF_C#6.opus
</region>

<region>
hivel=127
key=C4
loop_end=269765
loop_mode=loop_continuous
loop_start=59863
loop_xfade=25434
lovel=1
lpc=OfA4Qg8CI8PTAIBD8rlkwyB980KyphDCDBpzQZ8k+MH4djVCCSwXwlqSMkH9JkRBBNiRwfWErEG9nvnBuFDQQSj7hr/We0rBzqcTQIOIR0EZsHnBu9gQQXckJMCogxc/
lpc_rms=-15.21
sample=Oboe_sustain_FF_C4.opus
</region>

<region>
hivel=127
key=C5
loop_end=258330
loop_mode=loop_continuous
loop_start=57326
loop_xfade=24356
lovel=1
lpc=l8aqQfMqaMIswpJC60lYwjuEr0EGbctAZSeewZZHtEGzSmrBdbepQHhJCz9uMILAGhcuQW63SME6RAxBK6JhwMOCoD/GqEhAKUrGwB8KnUCqwo8/5AaQwCL/ZUAg5US/
lpc_rms=-19.56
sample=Oboe_sustain_FF_C5.opus
tune=-3
</region>

<region>
hivel=127
key=C6
loop_end=259599
loop_mode=loop_continuous
loop_start=57608
loop_xfade=24475
lovel=1
lpc=ldo4QifFdMLnvVRCSOWrwXtmHEE5N75AOIJ1QPir173+4x1BuS8+v9PFtUACxmlAGE9+QIWVrkAo9Dk+p5kRQY3G7r9hvw1BlI7ZPzAIe0Abb3Q/c1OiQfs3EsJjIJ1B
lpc_rms=-19.66
sample=Oboe_sustain_FF_C6.opus
tune=+2
</region>

<region>
hivel=127
key=D#4
loop_end=270457
loop_mode=loop_continuous
loop_start=60017
loop_xfade=25499
lovel=1
lpc=E7QgQrF+/MJWHSdDNivpwqy5EUIPWItBQ7oMwsbkw0F8eo1AB0TVwQpi+UFDSODBSBK9QYO6ncEVFnZBL+UtwWlm3EDvEao/gNTZwPZy0z8GJAdB9kkawfef7T9jz8w/
lpc_rms=-17.60
sample=Oboe_sustain_FF_D#4.opus
tune=-1
</region>

<region>
hivel=127
key=D#5
loop_end=265418
loop_mode=loop_continuous
loop_start=58899
loop_xfade=25024
lovel=1
lpc=0/xfQkX2HcMuZkRDv9P9wrfE2UEaq8RB/ynAwZRoQEH4zC/BPBg2QaWXnEDzsLfBNU0CQr6nCcKYmwVCyr6TwXKdJsGpWwNCN3Phwd3P1z+SzJJBTM9IwXAP778BEL5A
lpc_rms=-14.35
sample=Oboe_sustain_FF_D#5.opus
</region>

<region>
hivel=127
key=D#6
loop_end=256939
loop_mode=loop_continuous
loop_start=57017
loop_xfade=24225
lovel=1
lpc=YmETQ4ItUsPDbShDBah6wjqTVkEQAqxBdqYNQQSpnUEFwpBBFlcvQXxLt0GSHABB2RvOQaPK60CJoJ1BGffLQYCtFcA29+5B173SQRnU9sIakRdDClckwjC/j8BCBARC
lpc_rms=-8.48
sample=Oboe_sustain_FF_D#6.opus
</region>

<region>
hivel=127
key=D4
loop_end=272281
loop_mode=loop_continuous
loop_start=60422
loop_xfade=25671
lovel=1
lpc=+zfKQSg2n8IRkNRC1gOcwkzcEUKjlErBwIjSPxgLwD8mOIJANxbcwIfonL+QNNNA2QXCP21EEMGPkqhAotiBvpvfQ74BHqRAR4lrwZ7VikF7snvBmXeGQbS9VMF7nZJA
lpc_rms=-16.56
sample=Oboe_sustain_FF_D4.opus
</region>

<region>
hivel=127
key=D5
loop_end=269533
loop_mode=loop_continuous
loop_start=59812
loop_xfade=25412
lovel=1
lpc=S7qgQV5lgsKHssFCDXOrwtehQEL8f2vBH48NQLAf1sCxHFNBWt/8wKN4scDBWxVBLQGjPR8Y2MB8NY9A2XZ6P7t/pcAqLdlAPeWbwIC1dUDT9eTAbtA3QVX9GsFm8mVA
lpc_rms=-20.30
sample=Oboe_sustain_FF_D5.opus
</region>

<region>
hivel=127
key=D6
loop_end=269053
loop_mode=loop_continuous
loop_start=59705
loop_xfade=25367
lovel=1
lpc=FVaFQtGXvsKpgp5C1tkCwvQkhUFAf8VAd/rbv35PgkGCdjjBQea8QW0FFMF0UzJBhiOpQGl1Ez5gxXtBM6UpwdizlUGUw/K9FCnZvv2Zw0GoLIPC4uB6QjX7pcGVmlZA
lpc_rms=-17.21
sample=Oboe_sustain_FF_D6.opus
tune=+1
</region>

<region>
hivel=127
key=E4
loop_end=272155
loop_mode=loop_continuous
loop_start=60394
loop_xfade=25659
lovel=1
lpc=UjRQQoNOLMNUEHRDY180w5qpYEIm14pBRsDFwWx100Hr2ivCPjlSQrtOLMIrW2xBtMuOQaaLBMKe/dxBqJhvwcziZEG3R6XBYxBoQQ5rp0BuwtLBZ98UQkgY28GEqw1B
lpc_rms=-12.41
sample=Oboe_sustain_FF_E4.opus
tune=-1
</region>

<region>
hivel=127
key=E5
loop_end=255656
loop_mode=loop_continuous
loop_start=56733
loop_xfade=24104
lovel=1
lpc=D4rHQvQKi8M+0ahD4/hYw1ZsTUJyBGJCNtCgwgTNkkLS90DCxzbUPvph+kFJLQjCIGUBQv03lMBY3bLBtdfLQdxrocGZbatAJ3DTQdKwHcK0wkpBZR5MQmm8ocI+TiRC
lpc_rms=-8.12
sample=Oboe_sustain_FF_E5.opus
tune=-1
</region>

<region>
hikey=A6
hivel=127
lokey=E6
loop_end=273749
loop_mode=loop_continuous
loop_start=60747
loop_xfade=25810
lovel=1
lpc=0T0RQ5S5R8OE3iBDGbZNwp/oMkED+clBQkpWQMirCEI1ATtB87qLQQfQ0kG5GkZBZg69QT5pf0FExp5B0nasQW07ZkHP6w1CwTD7wsoVKUNYQYTCp+FIQb7L8kEtp5o/
lpc_rms=-10.18
pitch_keycenter=E6
sample=Oboe_sustain_FF_E6.opus
</region>

<region>
hivel=127
key=F#4
loop_end=267654
loop_mode=loop_continuous
loop_start=59395
loop_xfade=25235
lovel=1
lpc=yAO/QdgsjMKwC6xCx6ZdwoyonEFyAAnAMmd8wFlj3kA/f5HAs3+jQKWuNMHxUQFBvtoMQHaUVMCDnUE+L/hTwFgjE0F3J9nAJtkjwLzeOEDqvbBANu4FwfTLn0CvMM6/
lpc_rms=-21.34
sample=Oboe_sustain_FF_F#4.opus
</region>

<region>
hivel=127
key=F#5
loop_end=270414
loop_mode=loop_continuous
loop_start=60007
loop_xfade=25495
lovel=1
lpc=EMqqQZ0SXcJuFYxCN8xSwq/c3UGgbWzB9e17QWRNTMEgEYxAHCyoP+Tb6j/DO5DAN1SrQAXHQsBPku0/+ZvQP+Re4MBazk9BKplNwdOzKEGvQ+nAh234QNrKAsH0BLZA
lpc_rms=-18.95
sample=Oboe_sustain_FF_F#5.opus
</region>

<region>
hivel=127
key=F4
loop_end=266684
loop_mode=loop_continuous
loop_start=59180
loop_xfade=25143
lovel=1
lpc=3lEiQo0e8sL8XRxDLkvmwkyUTkIEd6C+EZYGwmXwTEK3rTjCQFgDQux8eMHCZxzBQd23Qa/AhcFLJfFAjCGRwIt/HkHRcdvAfwowwLEfAT9y525B+xLHwYXihkG3pmLA
lpc_rms=-15.39
sample=Oboe_sustain_FF_F4.opus
</region>

<region>
hivel=127
key=F5
loop_end=259485
loop_mode=loop_continuous
loop_start=57582
loop_xfade=24465
lovel=1
lpc=D54HQ55dmsOig5xD4Qocw/xt9sA6bKpC0L9zwv0+PEEgRbFBJ1CTQTHFI8KTbnPBlZx3QuX6OsJ/zI9B8XdgQUjTlMHS+M9BIL1CwUBDxMDmhYhBaNi6wZqWEkEah4FB
lpc_rms=-10.33
sample=Oboe_sustain_FF_F5.opus
tune=+2
</region>

<region>
hivel=127
key=G#4
loop_end=266179
loop_mode=loop_continuous
loop_start=59068
loop_xfade=25096
lovel=1
lpc=sh3TQf8OosJTzdZCA4uUwgVJq0Hxvh5Bn+kIwR+ANr9QD0LAGglIQctnkcET/oFBpMeWwCUofb8TVuS/XwHcPo06jEBWC0HAEi2mwGJYDEEnuak/CDNAwRoFHUFh3ifA
lpc_rms=-18.52
sample=Oboe_sustain_FF_G#4.opus
tune=-1
</region>

<region>
hivel=127
key=G#5
loop_end=268690
loop_mode=loop_continuous
loop_start=59625
loop_xfade=25333
lovel=1
lpc=QsZXQu1Au8JHOaZCKN/JwdahNMFE8dNBj7+UwQulrUFAqYDA85BkQFRohMH6nAFCAkCRwd4IIUHcoyhAGzEPwEI/kUE+g5DB9J5QQV59GsFs8cZBIYAQwUbnqcBe0WZB
lpc_rms=-16.37
sample=Oboe_sustain_FF_G#5.opus
tune=-2
</region>

<region>
hivel=127
key=G4
loop_end=258464
loop_mode=loop_continuous
loop_start=57356
loop_xfade=24368
lovel=1
lpc=nPyYQQExa8KXOqNCjfeBws5M6UHtU7jAOflDQIn8g8AC2Mm93nQSQTEli8GZUYBB+pTlwPVFCUDftTTARSHkP7h1p0BSSyrBKxLrQM7Xwb9pNz4+L/r4v8mgG0Az1me/
lpc_rms=-17.02
sample=Oboe_sustain_FF_G4.opus
tune=-1
</region>

<region>
hivel=127
key=G5
loop_end=283719
loop_mode=loop_continuous
loop_start=62960
loop_xfade=26750
lovel=1
lpc=nrpVQS+748GsuftBwmaYwTTos0Abw6U/7ht9PsIqMkBtm/PAh9MLQaXcU8AYDKY+ZpiyP61ucL7DBxRAMFyhwJ2wwUDqkcq/wIPfvnnuJEAjeFjACMiNQDmoX8DAQlhA
lpc_rms=-22.95
sample=Oboe_sustain_FF_G5.opus
</region>
</group>